<svg width="669" height="480" viewBox="0 0 669 480" fill="none" xmlns="http://www.w3.org/2000/svg">
    <rect x="0.5" y="68.5" width="591" height="370" stroke="#F9F9F9" />
    <path
        d="M460.001 284.5C460.001 284.898 459.843 285.28 459.562 285.561C459.28 285.843 458.898 286.001 458.5 286.001C458.103 286.001 457.721 285.843 457.439 285.561C457.158 285.28 457 284.898 457 284.5C457 284.103 457.158 283.721 457.439 283.44C457.721 283.159 458.102 283 458.5 283C458.898 283 459.279 283.159 459.561 283.44C459.842 283.721 460.001 284.103 460.001 284.5ZM478.968 284.5C478.968 284.898 478.81 285.28 478.529 285.561C478.247 285.842 477.866 286 477.468 286C477.07 286 476.689 285.842 476.407 285.561C476.126 285.28 475.968 284.898 475.968 284.5C475.968 284.103 476.126 283.721 476.407 283.44C476.689 283.159 477.07 283 477.468 283C477.866 283 478.247 283.159 478.529 283.44C478.81 283.721 478.968 284.103 478.968 284.5ZM497.936 284.5C497.936 284.898 497.778 285.28 497.497 285.561C497.215 285.843 496.833 286.001 496.435 286.001C496.038 286.001 495.656 285.843 495.374 285.561C495.093 285.28 494.935 284.898 494.935 284.5C494.935 284.103 495.093 283.721 495.374 283.439C495.656 283.158 496.038 283 496.435 283C496.833 283 497.215 283.158 497.497 283.439C497.778 283.721 497.936 284.103 497.936 284.5ZM516.904 284.5C516.904 284.898 516.746 285.28 516.464 285.561C516.183 285.843 515.801 286.001 515.404 286.001C515.006 286.001 514.624 285.843 514.342 285.561C514.061 285.28 513.903 284.898 513.903 284.5C513.903 284.103 514.061 283.721 514.342 283.44C514.624 283.159 515.005 283 515.403 283C515.801 283 516.182 283.159 516.464 283.44C516.745 283.721 516.904 284.103 516.904 284.5ZM535.872 284.5C535.872 284.898 535.714 285.28 535.432 285.561C535.151 285.843 534.769 286.001 534.371 286.001C533.974 286.001 533.592 285.843 533.31 285.561C533.029 285.28 532.871 284.898 532.871 284.5C532.871 284.103 533.029 283.721 533.31 283.44C533.592 283.159 533.973 283 534.371 283C534.769 283 535.15 283.159 535.432 283.44C535.713 283.721 535.871 284.103 535.871 284.5H535.872ZM554.839 284.5C554.839 284.898 554.681 285.28 554.4 285.561C554.118 285.842 553.737 286 553.339 286C552.941 286 552.56 285.842 552.278 285.561C551.997 285.28 551.839 284.898 551.839 284.5C551.839 284.103 551.997 283.721 552.278 283.44C552.56 283.159 552.941 283 553.339 283C553.737 283 554.118 283.159 554.4 283.44C554.681 283.721 554.839 284.103 554.839 284.5ZM573.807 284.5C573.807 284.898 573.649 285.28 573.368 285.561C573.086 285.842 572.705 286 572.307 286C571.909 286 571.528 285.842 571.246 285.561C570.965 285.28 570.807 284.898 570.807 284.5C570.807 284.103 570.965 283.721 571.246 283.44C571.528 283.159 571.909 283 572.307 283C572.705 283 573.086 283.159 573.368 283.44C573.649 283.721 573.807 284.103 573.807 284.5ZM592.776 284.5C592.776 284.898 592.618 285.28 592.336 285.561C592.055 285.843 591.673 286.001 591.276 286.001C590.878 286.001 590.496 285.843 590.214 285.561C589.933 285.28 589.775 284.898 589.775 284.5C589.775 284.103 589.933 283.721 590.214 283.439C590.496 283.158 590.878 283 591.276 283C591.673 283 592.055 283.158 592.336 283.439C592.618 283.721 592.776 284.103 592.776 284.5ZM611.744 284.5C611.744 284.898 611.586 285.28 611.305 285.561C611.023 285.843 610.641 286.001 610.243 286.001C609.846 286.001 609.464 285.843 609.182 285.561C608.901 285.28 608.743 284.898 608.743 284.5C608.743 284.103 608.901 283.721 609.182 283.44C609.464 283.159 609.845 283 610.243 283C610.641 283 611.022 283.159 611.304 283.44C611.585 283.721 611.744 284.103 611.744 284.5ZM630.712 284.5C630.712 284.899 630.554 285.28 630.272 285.562C629.991 285.843 629.609 286.001 629.211 286.001C628.813 286.001 628.431 285.843 628.15 285.562C627.868 285.28 627.71 284.899 627.71 284.5C627.71 284.103 627.868 283.721 628.149 283.439C628.431 283.158 628.813 283 629.211 283C629.608 283 629.99 283.158 630.271 283.439C630.553 283.721 630.712 284.103 630.712 284.5ZM649.679 284.5C649.679 284.898 649.521 285.28 649.24 285.561C648.958 285.842 648.577 286 648.179 286C647.781 286 647.4 285.842 647.118 285.561C646.837 285.28 646.679 284.898 646.679 284.5C646.679 284.103 646.837 283.721 647.118 283.44C647.4 283.159 647.781 283 648.179 283C648.577 283 648.958 283.159 649.24 283.44C649.521 283.721 649.679 284.103 649.679 284.5ZM668.647 284.5C668.647 284.898 668.489 285.28 668.208 285.561C667.926 285.843 667.544 286.001 667.146 286.001C666.749 286.001 666.367 285.843 666.085 285.561C665.804 285.28 665.646 284.898 665.646 284.5C665.646 284.103 665.804 283.721 666.085 283.439C666.367 283.158 666.749 283 667.146 283C667.544 283 667.926 283.158 668.208 283.439C668.489 283.721 668.647 284.103 668.647 284.5ZM460.001 303.723C460.001 303.921 459.962 304.116 459.887 304.298C459.811 304.48 459.701 304.645 459.561 304.784C459.422 304.924 459.256 305.034 459.074 305.109C458.892 305.185 458.697 305.224 458.5 305.223C458.303 305.223 458.108 305.185 457.926 305.109C457.744 305.034 457.578 304.923 457.439 304.784C457.3 304.644 457.189 304.479 457.114 304.297C457.039 304.115 457 303.92 457 303.723C457 303.325 457.158 302.943 457.44 302.662C457.721 302.381 458.103 302.223 458.5 302.223C458.898 302.223 459.28 302.381 459.561 302.663C459.842 302.944 460.001 303.326 460.001 303.723ZM478.968 303.723C478.968 304.121 478.81 304.503 478.528 304.784C478.247 305.065 477.865 305.223 477.467 305.223C477.07 305.223 476.688 305.065 476.407 304.783C476.126 304.502 475.968 304.12 475.968 303.723C475.968 303.325 476.126 302.943 476.408 302.662C476.689 302.381 477.071 302.223 477.469 302.223C477.866 302.223 478.248 302.381 478.529 302.663C478.81 302.944 478.968 303.326 478.968 303.723ZM497.936 303.723C497.936 303.921 497.897 304.116 497.822 304.298C497.746 304.48 497.636 304.645 497.496 304.784C497.357 304.924 497.191 305.034 497.009 305.109C496.827 305.185 496.632 305.224 496.435 305.223C496.238 305.223 496.043 305.185 495.861 305.109C495.679 305.034 495.513 304.923 495.374 304.784C495.235 304.644 495.124 304.479 495.049 304.297C494.974 304.115 494.935 303.92 494.935 303.723C494.935 303.325 495.093 302.943 495.375 302.662C495.656 302.38 496.038 302.222 496.436 302.223C496.834 302.223 497.216 302.381 497.497 302.662C497.778 302.944 497.936 303.326 497.936 303.723ZM516.904 303.723C516.904 303.921 516.865 304.116 516.79 304.298C516.714 304.48 516.604 304.645 516.464 304.784C516.325 304.924 516.159 305.034 515.977 305.109C515.795 305.185 515.6 305.224 515.403 305.223C515.206 305.223 515.011 305.185 514.829 305.109C514.647 305.034 514.481 304.923 514.342 304.784C514.203 304.644 514.092 304.479 514.017 304.297C513.942 304.115 513.903 303.92 513.903 303.723C513.903 303.325 514.061 302.943 514.343 302.662C514.624 302.381 515.006 302.223 515.404 302.223C515.801 302.223 516.183 302.381 516.464 302.663C516.745 302.944 516.904 303.326 516.904 303.723ZM535.872 303.723C535.872 303.921 535.833 304.116 535.758 304.298C535.682 304.48 535.572 304.645 535.432 304.784C535.293 304.924 535.127 305.034 534.945 305.109C534.763 305.185 534.568 305.224 534.371 305.223C534.174 305.223 533.979 305.185 533.797 305.109C533.615 305.034 533.449 304.923 533.31 304.784C533.171 304.644 533.06 304.479 532.985 304.297C532.91 304.115 532.871 303.92 532.871 303.723C532.871 303.325 533.029 302.943 533.311 302.662C533.592 302.381 533.974 302.223 534.371 302.223C534.769 302.223 535.151 302.381 535.432 302.663C535.713 302.944 535.871 303.326 535.871 303.723H535.872ZM554.839 303.723C554.839 304.121 554.681 304.503 554.4 304.784C554.118 305.065 553.737 305.223 553.339 305.223C552.941 305.223 552.56 305.065 552.278 304.784C551.997 304.503 551.839 304.121 551.839 303.723C551.839 303.326 551.997 302.944 552.278 302.663C552.56 302.382 552.941 302.223 553.339 302.223C553.737 302.223 554.118 302.382 554.4 302.663C554.681 302.944 554.839 303.326 554.839 303.723ZM573.807 303.723C573.807 304.121 573.649 304.503 573.368 304.784C573.086 305.065 572.705 305.223 572.307 305.223C571.909 305.223 571.528 305.065 571.246 304.784C570.965 304.503 570.807 304.121 570.807 303.723C570.807 303.326 570.965 302.944 571.246 302.663C571.528 302.382 571.909 302.223 572.307 302.223C572.705 302.223 573.086 302.382 573.368 302.663C573.649 302.944 573.807 303.326 573.807 303.723ZM592.776 303.723C592.776 304.121 592.618 304.503 592.336 304.784C592.055 305.066 591.673 305.224 591.275 305.223C590.877 305.223 590.495 305.065 590.214 304.784C589.933 304.502 589.775 304.12 589.775 303.723C589.775 303.325 589.933 302.943 590.215 302.662C590.496 302.38 590.878 302.222 591.276 302.223C591.674 302.223 592.056 302.381 592.337 302.662C592.618 302.944 592.776 303.326 592.776 303.723ZM611.744 303.723C611.744 304.121 611.586 304.503 611.304 304.784C611.023 305.066 610.641 305.224 610.243 305.223C609.845 305.223 609.463 305.065 609.182 304.784C608.901 304.502 608.743 304.12 608.743 303.723C608.743 303.325 608.901 302.943 609.183 302.662C609.464 302.381 609.846 302.223 610.243 302.223C610.641 302.223 611.023 302.381 611.304 302.663C611.585 302.944 611.744 303.326 611.744 303.723ZM630.712 303.723C630.712 303.921 630.673 304.116 630.598 304.298C630.522 304.48 630.411 304.645 630.272 304.785C630.133 304.924 629.967 305.035 629.785 305.11C629.603 305.185 629.408 305.224 629.211 305.224C629.013 305.224 628.818 305.185 628.636 305.11C628.454 305.034 628.289 304.923 628.149 304.784C628.01 304.645 627.899 304.479 627.824 304.297C627.749 304.115 627.71 303.92 627.71 303.723C627.71 303.325 627.868 302.943 628.15 302.662C628.431 302.38 628.813 302.222 629.211 302.223C629.609 302.223 629.991 302.381 630.272 302.662C630.553 302.944 630.712 303.326 630.712 303.723ZM649.679 303.723C649.679 303.92 649.64 304.116 649.565 304.297C649.489 304.479 649.379 304.645 649.239 304.784C649.1 304.923 648.935 305.034 648.753 305.109C648.571 305.184 648.375 305.223 648.178 305.223C647.981 305.223 647.786 305.184 647.604 305.109C647.423 305.033 647.257 304.923 647.118 304.783C646.979 304.644 646.868 304.479 646.793 304.297C646.718 304.115 646.679 303.919 646.679 303.723C646.679 303.325 646.837 302.943 647.119 302.662C647.4 302.381 647.782 302.223 648.18 302.223C648.577 302.223 648.959 302.381 649.24 302.663C649.521 302.944 649.679 303.326 649.679 303.723ZM668.647 303.723C668.647 304.121 668.489 304.503 668.207 304.784C667.926 305.066 667.544 305.224 667.146 305.223C666.748 305.223 666.366 305.065 666.085 304.784C665.804 304.502 665.646 304.12 665.646 303.723C665.646 303.325 665.804 302.943 666.086 302.662C666.367 302.38 666.749 302.222 667.147 302.223C667.545 302.223 667.927 302.381 668.208 302.662C668.489 302.944 668.647 303.326 668.647 303.723ZM460.001 322.947C460.001 323.145 459.962 323.34 459.887 323.522C459.811 323.704 459.701 323.869 459.561 324.008C459.422 324.148 459.256 324.258 459.074 324.333C458.892 324.409 458.697 324.448 458.5 324.447C458.303 324.447 458.108 324.409 457.926 324.333C457.744 324.258 457.578 324.147 457.439 324.008C457.3 323.868 457.189 323.703 457.114 323.521C457.039 323.339 457 323.144 457 322.947C457 322.549 457.158 322.167 457.439 321.886C457.721 321.605 458.102 321.447 458.5 321.447C458.898 321.447 459.279 321.605 459.561 321.886C459.842 322.167 460 322.549 460 322.947L460.001 322.947ZM478.968 322.947C478.968 323.345 478.81 323.727 478.528 324.008C478.247 324.289 477.865 324.447 477.467 324.447C477.07 324.447 476.688 324.289 476.407 324.007C476.126 323.726 475.968 323.344 475.968 322.947C475.968 322.549 476.126 322.167 476.407 321.886C476.689 321.605 477.07 321.447 477.468 321.447C477.866 321.447 478.247 321.605 478.529 321.886C478.81 322.167 478.968 322.55 478.968 322.947ZM497.936 322.947C497.936 323.145 497.897 323.34 497.822 323.522C497.746 323.704 497.636 323.869 497.496 324.008C497.357 324.148 497.191 324.258 497.009 324.333C496.827 324.409 496.632 324.448 496.435 324.447C496.238 324.447 496.043 324.409 495.861 324.333C495.679 324.258 495.513 324.147 495.374 324.008C495.235 323.868 495.124 323.703 495.049 323.521C494.974 323.339 494.935 323.144 494.935 322.947C494.935 322.549 495.093 322.167 495.374 321.885C495.656 321.604 496.038 321.446 496.435 321.446C496.833 321.446 497.215 321.604 497.497 321.885C497.778 322.167 497.936 322.55 497.936 322.947ZM516.904 322.947C516.904 323.145 516.865 323.34 516.79 323.522C516.714 323.704 516.604 323.869 516.464 324.008C516.325 324.148 516.159 324.258 515.977 324.333C515.795 324.409 515.6 324.448 515.403 324.447C515.206 324.447 515.011 324.409 514.829 324.333C514.647 324.258 514.481 324.147 514.342 324.008C514.203 323.868 514.092 323.703 514.017 323.521C513.942 323.339 513.903 323.144 513.903 322.947C513.903 322.549 514.061 322.167 514.342 321.886C514.624 321.605 515.005 321.447 515.403 321.447C515.801 321.447 516.182 321.605 516.464 321.886C516.745 322.167 516.903 322.549 516.903 322.947L516.904 322.947ZM535.872 322.947C535.872 323.145 535.833 323.34 535.758 323.522C535.682 323.704 535.572 323.869 535.432 324.008C535.293 324.148 535.127 324.258 534.945 324.333C534.763 324.409 534.568 324.448 534.371 324.447C534.174 324.447 533.979 324.409 533.797 324.333C533.615 324.258 533.449 324.147 533.31 324.008C533.171 323.868 533.06 323.703 532.985 323.521C532.91 323.339 532.871 323.144 532.871 322.947C532.871 322.549 533.029 322.167 533.31 321.886C533.592 321.605 533.973 321.447 534.371 321.447C534.769 321.447 535.15 321.605 535.432 321.886C535.713 322.167 535.871 322.549 535.871 322.947L535.872 322.947ZM554.839 322.947C554.839 323.345 554.681 323.727 554.4 324.008C554.118 324.289 553.737 324.447 553.339 324.447C552.941 324.447 552.56 324.289 552.278 324.008C551.997 323.727 551.839 323.345 551.839 322.947C551.839 322.55 551.997 322.168 552.278 321.887C552.56 321.606 552.941 321.447 553.339 321.447C553.737 321.447 554.118 321.606 554.4 321.887C554.681 322.168 554.839 322.55 554.839 322.947ZM573.807 322.947C573.807 323.345 573.649 323.727 573.368 324.008C573.086 324.289 572.705 324.447 572.307 324.447C571.909 324.447 571.528 324.289 571.246 324.008C570.965 323.727 570.807 323.345 570.807 322.947C570.807 322.55 570.965 322.168 571.246 321.887C571.528 321.606 571.909 321.447 572.307 321.447C572.705 321.447 573.086 321.606 573.368 321.887C573.649 322.168 573.807 322.55 573.807 322.947ZM592.776 322.947C592.776 323.345 592.618 323.727 592.336 324.008C592.055 324.29 591.673 324.448 591.275 324.447C590.877 324.447 590.495 324.289 590.214 324.008C589.933 323.726 589.775 323.344 589.775 322.947C589.775 322.549 589.933 322.167 590.214 321.885C590.496 321.604 590.878 321.446 591.276 321.446C591.673 321.446 592.055 321.604 592.336 321.885C592.618 322.167 592.776 322.55 592.776 322.947ZM611.744 322.947C611.744 323.345 611.586 323.727 611.304 324.008C611.023 324.29 610.641 324.448 610.243 324.447C609.845 324.447 609.463 324.289 609.182 324.008C608.901 323.726 608.743 323.344 608.743 322.947C608.743 322.549 608.901 322.167 609.182 321.886C609.464 321.605 609.845 321.447 610.243 321.447C610.641 321.447 611.022 321.605 611.304 321.886C611.585 322.167 611.743 322.549 611.743 322.947L611.744 322.947ZM630.712 322.947C630.712 323.346 630.554 323.727 630.272 324.009C629.99 324.29 629.609 324.448 629.211 324.448C628.812 324.448 628.431 324.29 628.149 324.008C627.868 323.726 627.71 323.345 627.71 322.947C627.71 322.549 627.868 322.167 628.149 321.885C628.431 321.604 628.813 321.446 629.211 321.446C629.608 321.446 629.99 321.604 630.271 321.885C630.553 322.167 630.711 322.549 630.711 322.947L630.712 322.947ZM649.679 322.947C649.679 323.144 649.64 323.34 649.565 323.521C649.489 323.703 649.379 323.869 649.239 324.008C649.1 324.147 648.935 324.258 648.753 324.333C648.571 324.408 648.375 324.447 648.178 324.447C647.981 324.447 647.786 324.408 647.604 324.333C647.423 324.257 647.257 324.147 647.118 324.007C646.979 323.868 646.868 323.703 646.793 323.521C646.718 323.339 646.679 323.143 646.679 322.947C646.679 322.549 646.837 322.167 647.118 321.886C647.4 321.605 647.781 321.447 648.179 321.447C648.577 321.447 648.958 321.605 649.24 321.886C649.521 322.167 649.679 322.55 649.679 322.947ZM668.647 322.947C668.647 323.345 668.489 323.727 668.207 324.008C667.926 324.29 667.544 324.448 667.146 324.447C666.748 324.447 666.366 324.289 666.085 324.008C665.804 323.726 665.646 323.344 665.646 322.947C665.646 322.549 665.804 322.167 666.085 321.885C666.367 321.604 666.749 321.446 667.146 321.446C667.544 321.446 667.926 321.604 668.208 321.885C668.489 322.167 668.647 322.55 668.647 322.947ZM460.001 342.169C460.001 342.567 459.843 342.949 459.562 343.23C459.28 343.512 458.898 343.67 458.5 343.67C458.103 343.67 457.721 343.512 457.439 343.23C457.158 342.949 457 342.567 457 342.169C457 341.772 457.158 341.39 457.439 341.109C457.721 340.828 458.102 340.669 458.5 340.669C458.898 340.669 459.279 340.828 459.561 341.109C459.842 341.39 460.001 341.772 460.001 342.169ZM478.968 342.169C478.968 342.567 478.81 342.949 478.529 343.23C478.247 343.511 477.866 343.669 477.468 343.669C477.07 343.669 476.689 343.511 476.407 343.23C476.126 342.949 475.968 342.567 475.968 342.169C475.968 341.772 476.126 341.39 476.407 341.109C476.689 340.828 477.07 340.669 477.468 340.669C477.866 340.669 478.247 340.828 478.529 341.109C478.81 341.39 478.968 341.772 478.968 342.169ZM497.936 342.169C497.936 342.567 497.778 342.949 497.497 343.23C497.215 343.512 496.833 343.67 496.435 343.67C496.038 343.67 495.656 343.512 495.374 343.23C495.093 342.949 494.935 342.567 494.935 342.169C494.935 341.772 495.093 341.39 495.374 341.108C495.656 340.827 496.038 340.669 496.435 340.669C496.833 340.669 497.215 340.827 497.497 341.108C497.778 341.39 497.936 341.772 497.936 342.169ZM516.904 342.169C516.904 342.567 516.746 342.949 516.464 343.23C516.183 343.512 515.801 343.67 515.404 343.67C515.006 343.67 514.624 343.512 514.342 343.23C514.061 342.949 513.903 342.567 513.903 342.169C513.903 341.772 514.061 341.39 514.342 341.109C514.624 340.828 515.005 340.669 515.403 340.669C515.801 340.669 516.182 340.828 516.464 341.109C516.745 341.39 516.904 341.772 516.904 342.169ZM535.872 342.169C535.872 342.567 535.714 342.949 535.432 343.23C535.151 343.512 534.769 343.67 534.371 343.67C533.974 343.67 533.592 343.512 533.31 343.23C533.029 342.949 532.871 342.567 532.871 342.169C532.871 341.772 533.029 341.39 533.31 341.109C533.592 340.828 533.973 340.669 534.371 340.669C534.769 340.669 535.15 340.828 535.432 341.109C535.713 341.39 535.871 341.772 535.871 342.169H535.872ZM554.839 342.169C554.839 342.567 554.681 342.949 554.4 343.23C554.118 343.511 553.737 343.669 553.339 343.669C552.941 343.669 552.56 343.511 552.278 343.23C551.997 342.949 551.839 342.567 551.839 342.169C551.839 341.772 551.997 341.39 552.278 341.109C552.56 340.828 552.941 340.669 553.339 340.669C553.737 340.669 554.118 340.828 554.4 341.109C554.681 341.39 554.839 341.772 554.839 342.169ZM573.807 342.169C573.807 342.567 573.649 342.949 573.368 343.23C573.086 343.511 572.705 343.669 572.307 343.669C571.909 343.669 571.528 343.511 571.246 343.23C570.965 342.949 570.807 342.567 570.807 342.169C570.807 341.772 570.965 341.39 571.246 341.109C571.528 340.828 571.909 340.669 572.307 340.669C572.705 340.669 573.086 340.828 573.368 341.109C573.649 341.39 573.807 341.772 573.807 342.169ZM592.776 342.169C592.776 342.567 592.618 342.949 592.336 343.23C592.055 343.512 591.673 343.67 591.276 343.67C590.878 343.67 590.496 343.512 590.214 343.23C589.933 342.949 589.775 342.567 589.775 342.169C589.775 341.772 589.933 341.39 590.214 341.108C590.496 340.827 590.878 340.669 591.276 340.669C591.673 340.669 592.055 340.827 592.336 341.108C592.618 341.39 592.776 341.772 592.776 342.169ZM611.744 342.169C611.744 342.567 611.586 342.949 611.305 343.23C611.023 343.512 610.641 343.67 610.243 343.67C609.846 343.67 609.464 343.512 609.182 343.23C608.901 342.949 608.743 342.567 608.743 342.169C608.743 341.772 608.901 341.39 609.182 341.109C609.464 340.828 609.845 340.669 610.243 340.669C610.641 340.669 611.022 340.828 611.304 341.109C611.585 341.39 611.744 341.772 611.744 342.169ZM630.712 342.169C630.712 342.568 630.554 342.949 630.272 343.231C629.991 343.512 629.609 343.671 629.211 343.671C628.813 343.671 628.431 343.512 628.15 343.231C627.868 342.949 627.71 342.568 627.71 342.169C627.71 341.772 627.868 341.39 628.149 341.108C628.431 340.827 628.813 340.669 629.211 340.669C629.608 340.669 629.99 340.827 630.271 341.108C630.553 341.39 630.712 341.772 630.712 342.169ZM649.679 342.169C649.679 342.567 649.521 342.949 649.24 343.23C648.958 343.511 648.577 343.669 648.179 343.669C647.781 343.669 647.4 343.511 647.118 343.23C646.837 342.949 646.679 342.567 646.679 342.169C646.679 341.772 646.837 341.39 647.118 341.109C647.4 340.828 647.781 340.669 648.179 340.669C648.577 340.669 648.958 340.828 649.24 341.109C649.521 341.39 649.679 341.772 649.679 342.169ZM668.647 342.169C668.647 342.567 668.489 342.949 668.208 343.23C667.926 343.512 667.544 343.67 667.146 343.67C666.749 343.67 666.367 343.512 666.085 343.23C665.804 342.949 665.646 342.567 665.646 342.169C665.646 341.772 665.804 341.39 666.085 341.108C666.367 340.827 666.749 340.669 667.146 340.669C667.544 340.669 667.926 340.827 668.208 341.108C668.489 341.39 668.647 341.772 668.647 342.169ZM460.001 361.392C460.001 361.79 459.843 362.172 459.562 362.453C459.28 362.734 458.899 362.892 458.501 362.892C458.103 362.892 457.722 362.734 457.44 362.453C457.159 362.172 457.001 361.79 457.001 361.392C457.001 360.995 457.159 360.613 457.44 360.332C457.722 360.051 458.103 359.892 458.501 359.892C458.899 359.892 459.28 360.051 459.562 360.332C459.843 360.613 460.001 360.995 460.001 361.392ZM478.968 361.392C478.968 361.79 478.81 362.172 478.529 362.453C478.247 362.734 477.866 362.892 477.468 362.892C477.07 362.892 476.689 362.734 476.407 362.453C476.126 362.172 475.968 361.79 475.968 361.392C475.968 360.995 476.126 360.613 476.407 360.332C476.689 360.051 477.07 359.892 477.468 359.892C477.866 359.892 478.247 360.051 478.529 360.332C478.81 360.613 478.968 360.995 478.968 361.392ZM497.936 361.392C497.936 361.79 497.778 362.172 497.497 362.453C497.215 362.734 496.834 362.892 496.436 362.892C496.038 362.892 495.657 362.734 495.375 362.453C495.094 362.172 494.936 361.79 494.936 361.392C494.936 360.995 495.094 360.613 495.375 360.332C495.657 360.051 496.038 359.892 496.436 359.892C496.834 359.892 497.215 360.051 497.497 360.332C497.778 360.613 497.936 360.995 497.936 361.392ZM516.904 361.392C516.904 361.79 516.746 362.172 516.465 362.453C516.183 362.734 515.802 362.892 515.404 362.892C515.006 362.892 514.625 362.734 514.343 362.453C514.062 362.172 513.904 361.79 513.904 361.392C513.904 360.995 514.062 360.613 514.343 360.332C514.625 360.051 515.006 359.892 515.404 359.892C515.802 359.892 516.183 360.051 516.465 360.332C516.746 360.613 516.904 360.995 516.904 361.392ZM535.872 361.392C535.872 361.79 535.714 362.172 535.433 362.453C535.151 362.734 534.77 362.892 534.372 362.892C533.974 362.892 533.593 362.734 533.311 362.453C533.03 362.172 532.872 361.79 532.872 361.392C532.872 360.995 533.03 360.613 533.311 360.332C533.593 360.051 533.974 359.892 534.372 359.892C534.77 359.892 535.151 360.051 535.433 360.332C535.714 360.613 535.872 360.995 535.872 361.392ZM554.839 361.392C554.846 361.594 554.813 361.795 554.741 361.983C554.669 362.171 554.56 362.343 554.42 362.489C554.28 362.634 554.113 362.749 553.927 362.828C553.742 362.907 553.542 362.948 553.341 362.948C553.139 362.948 552.939 362.907 552.754 362.828C552.568 362.75 552.4 362.634 552.26 362.489C552.121 362.344 552.011 362.172 551.939 361.984C551.867 361.796 551.834 361.595 551.841 361.393C551.855 361.005 552.019 360.638 552.299 360.368C552.578 360.099 552.951 359.948 553.339 359.948C553.728 359.948 554.101 360.098 554.381 360.368C554.66 360.637 554.825 361.004 554.839 361.392ZM573.807 361.392C573.814 361.594 573.781 361.795 573.709 361.983C573.637 362.171 573.528 362.343 573.388 362.489C573.248 362.634 573.081 362.749 572.895 362.828C572.71 362.907 572.51 362.948 572.309 362.948C572.107 362.948 571.907 362.907 571.722 362.828C571.536 362.75 571.368 362.634 571.229 362.489C571.089 362.344 570.979 362.172 570.907 361.984C570.835 361.796 570.802 361.595 570.809 361.393C570.823 361.005 570.987 360.638 571.267 360.368C571.546 360.099 571.919 359.948 572.307 359.948C572.696 359.948 573.069 360.098 573.349 360.368C573.628 360.637 573.793 361.004 573.807 361.392ZM592.776 361.392C592.776 361.79 592.618 362.172 592.337 362.453C592.055 362.734 591.674 362.892 591.276 362.892C590.878 362.892 590.497 362.734 590.215 362.453C589.934 362.172 589.776 361.79 589.776 361.392C589.776 360.995 589.934 360.613 590.215 360.332C590.497 360.051 590.878 359.892 591.276 359.892C591.674 359.892 592.055 360.051 592.337 360.332C592.618 360.613 592.776 360.995 592.776 361.392ZM611.744 361.392C611.744 361.79 611.586 362.172 611.305 362.453C611.023 362.734 610.642 362.892 610.244 362.892C609.846 362.892 609.465 362.734 609.183 362.453C608.902 362.172 608.744 361.79 608.744 361.392C608.744 360.995 608.902 360.613 609.183 360.332C609.465 360.051 609.846 359.892 610.244 359.892C610.642 359.892 611.023 360.051 611.305 360.332C611.586 360.613 611.744 360.995 611.744 361.392ZM630.712 361.392C630.712 361.79 630.554 362.172 630.273 362.453C629.991 362.734 629.61 362.892 629.212 362.892C628.814 362.892 628.433 362.734 628.151 362.453C627.87 362.172 627.712 361.79 627.712 361.392C627.712 360.995 627.87 360.613 628.151 360.332C628.433 360.051 628.814 359.892 629.212 359.892C629.61 359.892 629.991 360.051 630.273 360.332C630.554 360.613 630.712 360.995 630.712 361.392ZM649.679 361.392C649.679 361.79 649.521 362.172 649.24 362.453C648.958 362.734 648.577 362.892 648.179 362.892C647.781 362.892 647.4 362.734 647.118 362.453C646.837 362.172 646.679 361.79 646.679 361.392C646.679 360.995 646.837 360.613 647.118 360.332C647.4 360.051 647.781 359.892 648.179 359.892C648.577 359.892 648.958 360.051 649.24 360.332C649.521 360.613 649.679 360.995 649.679 361.392ZM668.647 361.392C668.647 361.79 668.489 362.172 668.208 362.453C667.926 362.734 667.545 362.892 667.147 362.892C666.749 362.892 666.368 362.734 666.086 362.453C665.805 362.172 665.647 361.79 665.647 361.392C665.647 360.995 665.805 360.613 666.086 360.332C666.368 360.051 666.749 359.892 667.147 359.892C667.545 359.892 667.926 360.051 668.208 360.332C668.489 360.613 668.647 360.995 668.647 361.392ZM460.001 380.616C460.001 380.814 459.962 381.009 459.887 381.191C459.811 381.373 459.701 381.538 459.561 381.677C459.422 381.817 459.256 381.927 459.074 382.002C458.892 382.078 458.697 382.117 458.5 382.116C458.303 382.116 458.108 382.078 457.926 382.002C457.744 381.927 457.578 381.816 457.439 381.677C457.3 381.537 457.189 381.372 457.114 381.19C457.039 381.008 457 380.813 457 380.616C457 380.218 457.158 379.836 457.439 379.555C457.721 379.274 458.102 379.116 458.5 379.116C458.898 379.116 459.279 379.274 459.561 379.555C459.842 379.836 460 380.218 460 380.616L460.001 380.616ZM478.968 380.616C478.968 381.014 478.81 381.396 478.528 381.677C478.247 381.958 477.865 382.116 477.467 382.116C477.07 382.116 476.688 381.958 476.407 381.676C476.126 381.395 475.968 381.013 475.968 380.616C475.968 380.218 476.126 379.836 476.407 379.555C476.689 379.274 477.07 379.116 477.468 379.116C477.866 379.116 478.247 379.274 478.529 379.555C478.81 379.836 478.968 380.219 478.968 380.616ZM497.936 380.616C497.936 380.814 497.897 381.009 497.822 381.191C497.746 381.373 497.636 381.538 497.496 381.677C497.357 381.817 497.191 381.927 497.009 382.002C496.827 382.078 496.632 382.117 496.435 382.116C496.238 382.116 496.043 382.078 495.861 382.002C495.679 381.927 495.513 381.816 495.374 381.677C495.235 381.537 495.124 381.372 495.049 381.19C494.974 381.008 494.935 380.813 494.935 380.616C494.935 380.218 495.093 379.836 495.374 379.554C495.656 379.273 496.038 379.115 496.435 379.115C496.833 379.115 497.215 379.273 497.497 379.554C497.778 379.836 497.936 380.219 497.936 380.616ZM516.904 380.616C516.904 380.814 516.865 381.009 516.79 381.191C516.714 381.373 516.604 381.538 516.464 381.677C516.325 381.817 516.159 381.927 515.977 382.002C515.795 382.078 515.6 382.117 515.403 382.116C515.206 382.116 515.011 382.078 514.829 382.002C514.647 381.927 514.481 381.816 514.342 381.677C514.203 381.537 514.092 381.372 514.017 381.19C513.942 381.008 513.903 380.813 513.903 380.616C513.903 380.218 514.061 379.836 514.342 379.555C514.624 379.274 515.005 379.116 515.403 379.116C515.801 379.116 516.182 379.274 516.464 379.555C516.745 379.836 516.903 380.218 516.903 380.616L516.904 380.616ZM535.872 380.616C535.872 380.814 535.833 381.009 535.758 381.191C535.682 381.373 535.572 381.538 535.432 381.677C535.293 381.817 535.127 381.927 534.945 382.002C534.763 382.078 534.568 382.117 534.371 382.116C534.174 382.116 533.979 382.078 533.797 382.002C533.615 381.927 533.449 381.816 533.31 381.677C533.171 381.537 533.06 381.372 532.985 381.19C532.91 381.008 532.871 380.813 532.871 380.616C532.871 380.218 533.029 379.836 533.31 379.555C533.592 379.274 533.973 379.116 534.371 379.116C534.769 379.116 535.15 379.274 535.432 379.555C535.713 379.836 535.871 380.218 535.871 380.616L535.872 380.616ZM554.839 380.616C554.839 381.014 554.681 381.396 554.4 381.677C554.118 381.958 553.737 382.116 553.339 382.116C552.941 382.116 552.56 381.958 552.278 381.677C551.997 381.396 551.839 381.014 551.839 380.616C551.839 380.219 551.997 379.837 552.278 379.556C552.56 379.275 552.941 379.116 553.339 379.116C553.737 379.116 554.118 379.275 554.4 379.556C554.681 379.837 554.839 380.219 554.839 380.616ZM573.807 380.616C573.807 381.014 573.649 381.396 573.368 381.677C573.086 381.958 572.705 382.116 572.307 382.116C571.909 382.116 571.528 381.958 571.246 381.677C570.965 381.396 570.807 381.014 570.807 380.616C570.807 380.219 570.965 379.837 571.246 379.556C571.528 379.275 571.909 379.116 572.307 379.116C572.705 379.116 573.086 379.275 573.368 379.556C573.649 379.837 573.807 380.219 573.807 380.616ZM592.776 380.616C592.776 381.014 592.618 381.396 592.336 381.677C592.055 381.959 591.673 382.117 591.275 382.116C590.877 382.116 590.495 381.958 590.214 381.677C589.933 381.395 589.775 381.013 589.775 380.616C589.775 380.218 589.933 379.836 590.214 379.554C590.496 379.273 590.878 379.115 591.276 379.115C591.673 379.115 592.055 379.273 592.336 379.554C592.618 379.836 592.776 380.219 592.776 380.616ZM611.744 380.616C611.744 381.014 611.586 381.396 611.304 381.677C611.023 381.959 610.641 382.117 610.243 382.116C609.845 382.116 609.463 381.958 609.182 381.677C608.901 381.395 608.743 381.013 608.743 380.616C608.743 380.218 608.901 379.836 609.182 379.555C609.464 379.274 609.845 379.116 610.243 379.116C610.641 379.116 611.022 379.274 611.304 379.555C611.585 379.836 611.743 380.218 611.743 380.616L611.744 380.616ZM630.712 380.616C630.712 381.015 630.554 381.396 630.272 381.678C629.99 381.959 629.609 382.117 629.211 382.117C628.812 382.117 628.431 381.959 628.149 381.677C627.868 381.395 627.71 381.014 627.71 380.616C627.71 380.218 627.868 379.836 628.149 379.554C628.431 379.273 628.813 379.115 629.211 379.115C629.608 379.115 629.99 379.273 630.271 379.554C630.553 379.836 630.711 380.218 630.711 380.616L630.712 380.616ZM649.679 380.616C649.679 380.813 649.64 381.008 649.565 381.19C649.489 381.372 649.379 381.538 649.239 381.677C649.1 381.816 648.935 381.927 648.753 382.002C648.571 382.077 648.375 382.116 648.178 382.116C647.981 382.116 647.786 382.077 647.604 382.002C647.423 381.926 647.257 381.816 647.118 381.676C646.979 381.537 646.868 381.372 646.793 381.19C646.718 381.008 646.679 380.812 646.679 380.616C646.679 380.218 646.837 379.836 647.118 379.555C647.4 379.274 647.781 379.116 648.179 379.116C648.577 379.116 648.958 379.274 649.24 379.555C649.521 379.836 649.679 380.219 649.679 380.616ZM668.647 380.616C668.647 381.014 668.489 381.396 668.207 381.677C667.926 381.959 667.544 382.117 667.146 382.116C666.748 382.116 666.366 381.958 666.085 381.677C665.804 381.395 665.646 381.013 665.646 380.616C665.646 380.218 665.804 379.836 666.085 379.554C666.367 379.273 666.749 379.115 667.146 379.115C667.544 379.115 667.926 379.273 668.208 379.554C668.489 379.836 668.647 380.219 668.647 380.616ZM460.001 399.84C460.001 400.237 459.843 400.619 459.562 400.9C459.28 401.181 458.899 401.34 458.501 401.34C458.103 401.34 457.722 401.181 457.44 400.9C457.159 400.619 457.001 400.237 457.001 399.84C457.001 399.442 457.159 399.06 457.44 398.779C457.722 398.498 458.103 398.34 458.501 398.34C458.899 398.34 459.28 398.498 459.562 398.779C459.843 399.06 460.001 399.442 460.001 399.84ZM478.968 399.84C478.968 400.237 478.81 400.619 478.529 400.9C478.247 401.181 477.866 401.34 477.468 401.34C477.07 401.34 476.689 401.181 476.407 400.9C476.126 400.619 475.968 400.237 475.968 399.84C475.968 399.442 476.126 399.06 476.407 398.779C476.689 398.498 477.07 398.34 477.468 398.34C477.866 398.34 478.247 398.498 478.529 398.779C478.81 399.06 478.968 399.442 478.968 399.84ZM497.936 399.84C497.936 400.237 497.778 400.619 497.497 400.9C497.215 401.181 496.834 401.34 496.436 401.34C496.038 401.34 495.657 401.181 495.375 400.9C495.094 400.619 494.936 400.237 494.936 399.84C494.936 399.442 495.094 399.06 495.375 398.779C495.657 398.498 496.038 398.34 496.436 398.34C496.834 398.34 497.215 398.498 497.497 398.779C497.778 399.06 497.936 399.442 497.936 399.84ZM516.904 399.84C516.904 400.237 516.746 400.619 516.465 400.9C516.183 401.181 515.802 401.34 515.404 401.34C515.006 401.34 514.625 401.181 514.343 400.9C514.062 400.619 513.904 400.237 513.904 399.84C513.904 399.442 514.062 399.06 514.343 398.779C514.625 398.498 515.006 398.34 515.404 398.34C515.802 398.34 516.183 398.498 516.465 398.779C516.746 399.06 516.904 399.442 516.904 399.84ZM535.872 399.84C535.872 400.237 535.714 400.619 535.433 400.9C535.151 401.181 534.77 401.34 534.372 401.34C533.974 401.34 533.593 401.181 533.311 400.9C533.03 400.619 532.872 400.237 532.872 399.84C532.872 399.442 533.03 399.06 533.311 398.779C533.593 398.498 533.974 398.34 534.372 398.34C534.77 398.34 535.151 398.498 535.433 398.779C535.714 399.06 535.872 399.442 535.872 399.84ZM554.839 399.84C554.846 400.041 554.813 400.242 554.741 400.43C554.669 400.618 554.56 400.79 554.42 400.935C554.28 401.081 554.112 401.196 553.927 401.275C553.741 401.354 553.542 401.394 553.34 401.394C553.138 401.394 552.939 401.354 552.753 401.275C552.568 401.196 552.4 401.081 552.26 400.935C552.12 400.79 552.011 400.618 551.939 400.43C551.867 400.242 551.834 400.041 551.841 399.84C551.855 399.451 552.019 399.084 552.299 398.814C552.578 398.545 552.952 398.394 553.34 398.394C553.728 398.394 554.102 398.545 554.381 398.814C554.661 399.084 554.825 399.451 554.839 399.84ZM573.807 399.84C573.814 400.041 573.781 400.242 573.709 400.43C573.637 400.618 573.528 400.79 573.388 400.935C573.248 401.081 573.08 401.196 572.895 401.275C572.709 401.354 572.51 401.394 572.308 401.394C572.106 401.394 571.907 401.354 571.721 401.275C571.536 401.196 571.368 401.081 571.228 400.935C571.088 400.79 570.979 400.618 570.907 400.43C570.835 400.242 570.802 400.041 570.809 399.84C570.823 399.451 570.987 399.084 571.267 398.814C571.546 398.545 571.92 398.394 572.308 398.394C572.696 398.394 573.07 398.545 573.349 398.814C573.629 399.084 573.793 399.451 573.807 399.84ZM592.776 399.84C592.776 400.237 592.618 400.619 592.337 400.9C592.055 401.181 591.674 401.34 591.276 401.34C590.878 401.34 590.497 401.181 590.215 400.9C589.934 400.619 589.776 400.237 589.776 399.84C589.776 399.442 589.934 399.06 590.215 398.779C590.497 398.498 590.878 398.34 591.276 398.34C591.674 398.34 592.055 398.498 592.337 398.779C592.618 399.06 592.776 399.442 592.776 399.84ZM611.744 399.84C611.744 400.237 611.586 400.619 611.305 400.9C611.023 401.181 610.642 401.34 610.244 401.34C609.846 401.34 609.465 401.181 609.183 400.9C608.902 400.619 608.744 400.237 608.744 399.84C608.744 399.442 608.902 399.06 609.183 398.779C609.465 398.498 609.846 398.34 610.244 398.34C610.642 398.34 611.023 398.498 611.305 398.779C611.586 399.06 611.744 399.442 611.744 399.84ZM630.712 399.84C630.712 400.237 630.554 400.619 630.273 400.9C629.991 401.181 629.61 401.34 629.212 401.34C628.814 401.34 628.433 401.181 628.151 400.9C627.87 400.619 627.712 400.237 627.712 399.84C627.712 399.442 627.87 399.06 628.151 398.779C628.433 398.498 628.814 398.34 629.212 398.34C629.61 398.34 629.991 398.498 630.273 398.779C630.554 399.06 630.712 399.442 630.712 399.84ZM649.679 399.84C649.679 400.237 649.521 400.619 649.24 400.9C648.958 401.181 648.577 401.34 648.179 401.34C647.781 401.34 647.4 401.181 647.118 400.9C646.837 400.619 646.679 400.237 646.679 399.84C646.679 399.442 646.837 399.06 647.118 398.779C647.4 398.498 647.781 398.34 648.179 398.34C648.577 398.34 648.958 398.498 649.24 398.779C649.521 399.06 649.679 399.442 649.679 399.84ZM668.647 399.84C668.647 400.237 668.489 400.619 668.208 400.9C667.926 401.181 667.545 401.34 667.147 401.34C666.749 401.34 666.368 401.181 666.086 400.9C665.805 400.619 665.647 400.237 665.647 399.84C665.647 399.442 665.805 399.06 666.086 398.779C666.368 398.498 666.749 398.34 667.147 398.34C667.545 398.34 667.926 398.498 668.208 398.779C668.489 399.06 668.647 399.442 668.647 399.84ZM460.001 419.062C460.001 419.26 459.962 419.455 459.887 419.637C459.811 419.819 459.701 419.984 459.561 420.123C459.422 420.263 459.256 420.373 459.074 420.448C458.892 420.524 458.697 420.563 458.5 420.562C458.303 420.562 458.108 420.524 457.926 420.448C457.744 420.373 457.578 420.262 457.439 420.123C457.3 419.983 457.189 419.818 457.114 419.636C457.039 419.454 457 419.259 457 419.061C457 418.664 457.158 418.282 457.44 418.001C457.721 417.72 458.103 417.562 458.5 417.562C458.898 417.562 459.28 417.72 459.561 418.002C459.842 418.283 460.001 418.665 460.001 419.062ZM478.968 419.062C478.968 419.46 478.81 419.842 478.528 420.123C478.247 420.404 477.865 420.562 477.467 420.562C477.07 420.562 476.688 420.404 476.407 420.122C476.126 419.841 475.968 419.459 475.968 419.061C475.968 418.664 476.126 418.282 476.408 418.001C476.689 417.72 477.071 417.562 477.469 417.562C477.866 417.562 478.248 417.72 478.529 418.002C478.81 418.283 478.968 418.665 478.968 419.062ZM497.936 419.062C497.936 419.26 497.897 419.455 497.822 419.637C497.746 419.819 497.636 419.984 497.496 420.123C497.357 420.263 497.191 420.373 497.009 420.448C496.827 420.524 496.632 420.563 496.435 420.562C496.238 420.562 496.043 420.524 495.861 420.448C495.679 420.373 495.513 420.262 495.374 420.123C495.235 419.983 495.124 419.818 495.049 419.636C494.974 419.454 494.935 419.259 494.935 419.061C494.935 418.664 495.093 418.282 495.375 418.001C495.656 417.719 496.038 417.561 496.436 417.561C496.834 417.562 497.216 417.72 497.497 418.001C497.778 418.283 497.936 418.665 497.936 419.062ZM516.904 419.062C516.904 419.26 516.865 419.455 516.79 419.637C516.714 419.819 516.604 419.984 516.464 420.123C516.325 420.263 516.159 420.373 515.977 420.448C515.795 420.524 515.6 420.563 515.403 420.562C515.206 420.562 515.011 420.524 514.829 420.448C514.647 420.373 514.481 420.262 514.342 420.123C514.203 419.983 514.092 419.818 514.017 419.636C513.942 419.454 513.903 419.259 513.903 419.061C513.903 418.664 514.061 418.282 514.343 418.001C514.624 417.72 515.006 417.562 515.404 417.562C515.801 417.562 516.183 417.72 516.464 418.002C516.745 418.283 516.904 418.665 516.904 419.062ZM535.872 419.062C535.872 419.26 535.833 419.455 535.758 419.637C535.682 419.819 535.572 419.984 535.432 420.123C535.293 420.263 535.127 420.373 534.945 420.448C534.763 420.524 534.568 420.563 534.371 420.562C534.174 420.562 533.979 420.524 533.797 420.448C533.615 420.373 533.449 420.262 533.31 420.123C533.171 419.983 533.06 419.818 532.985 419.636C532.91 419.454 532.871 419.259 532.871 419.061C532.871 418.664 533.029 418.282 533.311 418.001C533.592 417.72 533.974 417.562 534.371 417.562C534.769 417.562 535.151 417.72 535.432 418.002C535.713 418.283 535.871 418.665 535.871 419.062H535.872ZM554.839 419.062C554.839 419.46 554.681 419.842 554.4 420.123C554.118 420.404 553.737 420.562 553.339 420.562C552.941 420.562 552.56 420.404 552.278 420.123C551.997 419.842 551.839 419.46 551.839 419.062C551.839 418.665 551.997 418.283 552.278 418.002C552.56 417.721 552.941 417.562 553.339 417.562C553.737 417.562 554.118 417.721 554.4 418.002C554.681 418.283 554.839 418.665 554.839 419.062ZM573.807 419.062C573.807 419.46 573.649 419.842 573.368 420.123C573.086 420.404 572.705 420.562 572.307 420.562C571.909 420.562 571.528 420.404 571.246 420.123C570.965 419.842 570.807 419.46 570.807 419.062C570.807 418.665 570.965 418.283 571.246 418.002C571.528 417.721 571.909 417.562 572.307 417.562C572.705 417.562 573.086 417.721 573.368 418.002C573.649 418.283 573.807 418.665 573.807 419.062ZM592.776 419.062C592.776 419.46 592.618 419.842 592.336 420.123C592.055 420.405 591.673 420.563 591.275 420.562C590.877 420.562 590.495 420.404 590.214 420.123C589.933 419.841 589.775 419.459 589.775 419.061C589.775 418.864 589.814 418.669 589.889 418.487C589.965 418.305 590.075 418.14 590.215 418.001C590.354 417.861 590.52 417.751 590.702 417.676C590.884 417.6 591.079 417.561 591.276 417.561C591.473 417.562 591.668 417.6 591.85 417.676C592.032 417.751 592.198 417.862 592.337 418.001C592.476 418.141 592.587 418.306 592.662 418.488C592.737 418.67 592.776 418.865 592.776 419.062ZM611.744 419.062C611.744 419.46 611.586 419.842 611.304 420.123C611.023 420.405 610.641 420.563 610.243 420.562C609.845 420.562 609.463 420.404 609.182 420.123C608.901 419.841 608.743 419.459 608.743 419.061C608.743 418.664 608.901 418.282 609.183 418.001C609.464 417.72 609.846 417.562 610.243 417.562C610.641 417.562 611.023 417.72 611.304 418.002C611.585 418.283 611.744 418.665 611.744 419.062ZM630.712 419.062C630.712 419.461 630.554 419.842 630.272 420.124C629.99 420.405 629.609 420.563 629.211 420.563C628.812 420.563 628.431 420.405 628.149 420.123C627.868 419.841 627.71 419.46 627.71 419.061C627.71 418.864 627.749 418.669 627.824 418.487C627.9 418.305 628.01 418.14 628.15 418.001C628.289 417.861 628.455 417.751 628.637 417.676C628.819 417.6 629.014 417.561 629.211 417.561C629.408 417.562 629.603 417.6 629.785 417.676C629.967 417.751 630.133 417.862 630.272 418.001C630.411 418.141 630.522 418.306 630.597 418.488C630.672 418.67 630.712 418.865 630.712 419.062ZM649.679 419.062C649.679 419.259 649.64 419.455 649.565 419.637C649.489 419.818 649.379 419.984 649.239 420.123C649.1 420.262 648.935 420.373 648.753 420.448C648.571 420.523 648.375 420.562 648.178 420.562C647.981 420.562 647.786 420.523 647.604 420.448C647.423 420.372 647.257 420.262 647.118 420.122C646.979 419.983 646.868 419.818 646.793 419.636C646.718 419.454 646.679 419.258 646.679 419.061C646.679 418.664 646.837 418.282 647.119 418.001C647.4 417.72 647.782 417.562 648.18 417.562C648.577 417.562 648.959 417.72 649.24 418.002C649.521 418.283 649.679 418.665 649.679 419.062ZM668.647 419.062C668.647 419.46 668.489 419.842 668.207 420.123C667.926 420.405 667.544 420.563 667.146 420.562C666.748 420.562 666.366 420.404 666.085 420.123C665.804 419.841 665.646 419.459 665.646 419.061C665.646 418.864 665.685 418.669 665.76 418.487C665.836 418.305 665.946 418.14 666.086 418.001C666.225 417.861 666.391 417.751 666.573 417.676C666.755 417.6 666.95 417.561 667.147 417.561C667.344 417.562 667.539 417.6 667.721 417.676C667.903 417.751 668.069 417.862 668.208 418.001C668.347 418.141 668.458 418.306 668.533 418.488C668.608 418.67 668.647 418.865 668.647 419.062ZM460.001 438.285C460.001 438.483 459.962 438.678 459.887 438.86C459.811 439.042 459.701 439.207 459.561 439.346C459.422 439.486 459.256 439.596 459.074 439.671C458.892 439.747 458.697 439.786 458.5 439.785C458.303 439.785 458.108 439.747 457.926 439.671C457.744 439.596 457.578 439.485 457.439 439.346C457.3 439.206 457.189 439.041 457.114 438.859C457.039 438.677 457 438.482 457 438.285C457 437.887 457.158 437.505 457.439 437.224C457.721 436.943 458.102 436.785 458.5 436.785C458.898 436.785 459.279 436.943 459.561 437.224C459.842 437.505 460 437.887 460 438.285L460.001 438.285ZM478.968 438.285C478.968 438.683 478.81 439.065 478.528 439.346C478.247 439.627 477.865 439.785 477.467 439.785C477.07 439.785 476.688 439.627 476.407 439.345C476.126 439.064 475.968 438.682 475.968 438.285C475.968 437.887 476.126 437.505 476.407 437.224C476.689 436.943 477.07 436.785 477.468 436.785C477.866 436.785 478.247 436.943 478.529 437.224C478.81 437.505 478.968 437.888 478.968 438.285ZM497.936 438.285C497.936 438.483 497.897 438.678 497.822 438.86C497.746 439.042 497.636 439.207 497.496 439.346C497.357 439.486 497.191 439.596 497.009 439.671C496.827 439.747 496.632 439.786 496.435 439.785C496.238 439.785 496.043 439.747 495.861 439.671C495.679 439.596 495.513 439.485 495.374 439.346C495.235 439.206 495.124 439.041 495.049 438.859C494.974 438.677 494.935 438.482 494.935 438.285C494.935 437.887 495.093 437.505 495.374 437.223C495.656 436.942 496.038 436.784 496.435 436.784C496.833 436.784 497.215 436.942 497.497 437.223C497.778 437.505 497.936 437.888 497.936 438.285ZM516.904 438.285C516.904 438.483 516.865 438.678 516.79 438.86C516.714 439.042 516.604 439.207 516.464 439.346C516.325 439.486 516.159 439.596 515.977 439.671C515.795 439.747 515.6 439.786 515.403 439.785C515.206 439.785 515.011 439.747 514.829 439.671C514.647 439.596 514.481 439.485 514.342 439.346C514.203 439.206 514.092 439.041 514.017 438.859C513.942 438.677 513.903 438.482 513.903 438.285C513.903 437.887 514.061 437.505 514.342 437.224C514.624 436.943 515.005 436.785 515.403 436.785C515.801 436.785 516.182 436.943 516.464 437.224C516.745 437.505 516.903 437.887 516.903 438.285L516.904 438.285ZM535.872 438.285C535.872 438.483 535.833 438.678 535.758 438.86C535.682 439.042 535.572 439.207 535.432 439.346C535.293 439.486 535.127 439.596 534.945 439.671C534.763 439.747 534.568 439.786 534.371 439.785C534.174 439.785 533.979 439.747 533.797 439.671C533.615 439.596 533.449 439.485 533.31 439.346C533.171 439.206 533.06 439.041 532.985 438.859C532.91 438.677 532.871 438.482 532.871 438.285C532.871 437.887 533.029 437.505 533.31 437.224C533.592 436.943 533.973 436.785 534.371 436.785C534.769 436.785 535.15 436.943 535.432 437.224C535.713 437.505 535.871 437.887 535.871 438.285L535.872 438.285ZM554.839 438.285C554.839 438.683 554.681 439.065 554.4 439.346C554.118 439.627 553.737 439.785 553.339 439.785C552.941 439.785 552.56 439.627 552.278 439.346C551.997 439.065 551.839 438.683 551.839 438.285C551.839 437.888 551.997 437.506 552.278 437.225C552.56 436.944 552.941 436.785 553.339 436.785C553.737 436.785 554.118 436.944 554.4 437.225C554.681 437.506 554.839 437.888 554.839 438.285ZM573.807 438.285C573.807 438.683 573.649 439.065 573.368 439.346C573.086 439.627 572.705 439.785 572.307 439.785C571.909 439.785 571.528 439.627 571.246 439.346C570.965 439.065 570.807 438.683 570.807 438.285C570.807 437.888 570.965 437.506 571.246 437.225C571.528 436.944 571.909 436.785 572.307 436.785C572.705 436.785 573.086 436.944 573.368 437.225C573.649 437.506 573.807 437.888 573.807 438.285ZM592.776 438.285C592.776 438.683 592.618 439.065 592.336 439.346C592.055 439.628 591.673 439.786 591.275 439.785C590.877 439.785 590.495 439.627 590.214 439.346C589.933 439.064 589.775 438.682 589.775 438.285C589.775 437.887 589.933 437.505 590.214 437.223C590.496 436.942 590.878 436.784 591.276 436.784C591.673 436.784 592.055 436.942 592.336 437.223C592.618 437.505 592.776 437.888 592.776 438.285ZM611.744 438.285C611.744 438.683 611.586 439.065 611.304 439.346C611.023 439.628 610.641 439.786 610.243 439.785C609.845 439.785 609.463 439.627 609.182 439.346C608.901 439.064 608.743 438.682 608.743 438.285C608.743 437.887 608.901 437.505 609.182 437.224C609.464 436.943 609.845 436.785 610.243 436.785C610.641 436.785 611.022 436.943 611.304 437.224C611.585 437.505 611.743 437.887 611.743 438.285L611.744 438.285ZM630.712 438.285C630.712 438.483 630.673 438.678 630.598 438.86C630.522 439.042 630.411 439.207 630.272 439.347C630.133 439.486 629.967 439.597 629.785 439.672C629.603 439.747 629.408 439.786 629.211 439.786C629.013 439.786 628.818 439.747 628.636 439.672C628.454 439.596 628.289 439.485 628.149 439.346C628.01 439.207 627.899 439.041 627.824 438.859C627.749 438.677 627.71 438.482 627.71 438.285C627.71 437.887 627.868 437.505 628.149 437.223C628.431 436.942 628.813 436.784 629.211 436.784C629.608 436.784 629.99 436.942 630.271 437.223C630.553 437.505 630.711 437.887 630.711 438.285L630.712 438.285ZM649.679 438.285C649.679 438.482 649.64 438.678 649.565 438.859C649.489 439.041 649.379 439.207 649.239 439.346C649.1 439.485 648.935 439.596 648.753 439.671C648.571 439.746 648.375 439.785 648.178 439.785C647.981 439.785 647.786 439.746 647.604 439.671C647.423 439.595 647.257 439.485 647.118 439.345C646.979 439.206 646.868 439.041 646.793 438.859C646.718 438.677 646.679 438.481 646.679 438.285C646.679 437.887 646.837 437.505 647.118 437.224C647.4 436.943 647.781 436.785 648.179 436.785C648.577 436.785 648.958 436.943 649.24 437.224C649.521 437.505 649.679 437.888 649.679 438.285ZM668.647 438.285C668.647 438.683 668.489 439.065 668.207 439.346C667.926 439.628 667.544 439.786 667.146 439.785C666.748 439.785 666.366 439.627 666.085 439.346C665.804 439.064 665.646 438.682 665.646 438.285C665.646 437.887 665.804 437.505 666.085 437.223C666.367 436.942 666.749 436.784 667.146 436.784C667.544 436.784 667.926 436.942 668.208 437.223C668.489 437.505 668.647 437.888 668.647 438.285ZM460.001 457.507C460.001 457.905 459.843 458.287 459.562 458.568C459.28 458.849 458.899 459.007 458.501 459.007C458.103 459.007 457.722 458.849 457.44 458.568C457.159 458.287 457.001 457.905 457.001 457.507C457.001 457.11 457.159 456.728 457.44 456.447C457.722 456.165 458.103 456.007 458.501 456.007C458.899 456.007 459.28 456.165 459.562 456.447C459.843 456.728 460.001 457.11 460.001 457.507ZM478.968 457.507C478.968 457.905 478.81 458.287 478.529 458.568C478.247 458.849 477.866 459.007 477.468 459.007C477.07 459.007 476.689 458.849 476.407 458.568C476.126 458.287 475.968 457.905 475.968 457.507C475.968 457.11 476.126 456.728 476.407 456.447C476.689 456.165 477.07 456.007 477.468 456.007C477.866 456.007 478.247 456.165 478.529 456.447C478.81 456.728 478.968 457.11 478.968 457.507ZM497.936 457.507C497.936 457.905 497.778 458.287 497.497 458.568C497.215 458.849 496.834 459.007 496.436 459.007C496.038 459.007 495.657 458.849 495.375 458.568C495.094 458.287 494.936 457.905 494.936 457.507C494.936 457.11 495.094 456.728 495.375 456.447C495.657 456.165 496.038 456.007 496.436 456.007C496.834 456.007 497.215 456.165 497.497 456.447C497.778 456.728 497.936 457.11 497.936 457.507ZM516.904 457.507C516.904 457.905 516.746 458.287 516.465 458.568C516.183 458.849 515.802 459.007 515.404 459.007C515.006 459.007 514.625 458.849 514.343 458.568C514.062 458.287 513.904 457.905 513.904 457.507C513.904 457.11 514.062 456.728 514.343 456.447C514.625 456.165 515.006 456.007 515.404 456.007C515.802 456.007 516.183 456.165 516.465 456.447C516.746 456.728 516.904 457.11 516.904 457.507ZM535.872 457.507C535.872 457.905 535.714 458.287 535.433 458.568C535.151 458.849 534.77 459.007 534.372 459.007C533.974 459.007 533.593 458.849 533.311 458.568C533.03 458.287 532.872 457.905 532.872 457.507C532.872 457.11 533.03 456.728 533.311 456.447C533.593 456.165 533.974 456.007 534.372 456.007C534.77 456.007 535.151 456.165 535.433 456.447C535.714 456.728 535.872 457.11 535.872 457.507ZM554.839 457.507C554.846 457.709 554.813 457.91 554.741 458.098C554.67 458.287 554.56 458.458 554.421 458.604C554.281 458.749 554.113 458.864 553.928 458.943C553.742 459.022 553.543 459.063 553.341 459.063C553.139 459.063 552.94 459.023 552.754 458.944C552.569 458.865 552.401 458.75 552.261 458.605C552.121 458.46 552.012 458.288 551.939 458.1C551.867 457.912 551.834 457.711 551.841 457.509C551.855 457.121 552.019 456.754 552.298 456.484C552.578 456.214 552.951 456.064 553.339 456.063C553.727 456.063 554.101 456.213 554.38 456.483C554.66 456.752 554.825 457.119 554.839 457.507ZM573.807 457.507C573.814 457.709 573.781 457.91 573.709 458.098C573.638 458.287 573.528 458.458 573.389 458.604C573.249 458.749 573.081 458.864 572.896 458.943C572.71 459.022 572.511 459.063 572.309 459.063C572.107 459.063 571.908 459.023 571.722 458.944C571.537 458.865 571.369 458.75 571.229 458.605C571.089 458.46 570.979 458.288 570.907 458.1C570.835 457.912 570.802 457.711 570.809 457.509C570.823 457.121 570.987 456.754 571.266 456.484C571.546 456.214 571.919 456.064 572.307 456.063C572.695 456.063 573.069 456.213 573.348 456.483C573.628 456.752 573.793 457.119 573.807 457.507ZM592.776 457.507C592.776 457.905 592.618 458.287 592.337 458.568C592.055 458.849 591.674 459.007 591.276 459.007C590.878 459.007 590.497 458.849 590.215 458.568C589.934 458.287 589.776 457.905 589.776 457.507C589.776 457.11 589.934 456.728 590.215 456.447C590.497 456.165 590.878 456.007 591.276 456.007C591.674 456.007 592.055 456.165 592.337 456.447C592.618 456.728 592.776 457.11 592.776 457.507ZM611.744 457.507C611.744 457.905 611.586 458.287 611.305 458.568C611.023 458.849 610.642 459.007 610.244 459.007C609.846 459.007 609.465 458.849 609.183 458.568C608.902 458.287 608.744 457.905 608.744 457.507C608.744 457.11 608.902 456.728 609.183 456.447C609.465 456.165 609.846 456.007 610.244 456.007C610.642 456.007 611.023 456.165 611.305 456.447C611.586 456.728 611.744 457.11 611.744 457.507ZM630.712 457.507C630.712 457.905 630.554 458.287 630.273 458.568C629.991 458.849 629.61 459.007 629.212 459.007C628.814 459.007 628.433 458.849 628.151 458.568C627.87 458.287 627.712 457.905 627.712 457.507C627.712 457.11 627.87 456.728 628.151 456.447C628.433 456.165 628.814 456.007 629.212 456.007C629.61 456.007 629.991 456.165 630.273 456.447C630.554 456.728 630.712 457.11 630.712 457.507ZM649.679 457.507C649.679 457.905 649.521 458.287 649.24 458.568C648.958 458.849 648.577 459.007 648.179 459.007C647.781 459.007 647.4 458.849 647.118 458.568C646.837 458.287 646.679 457.905 646.679 457.507C646.679 457.11 646.837 456.728 647.118 456.447C647.4 456.165 647.781 456.007 648.179 456.007C648.577 456.007 648.958 456.165 649.24 456.447C649.521 456.728 649.679 457.11 649.679 457.507ZM668.647 457.507C668.647 457.905 668.489 458.287 668.208 458.568C667.926 458.849 667.545 459.007 667.147 459.007C666.749 459.007 666.368 458.849 666.086 458.568C665.805 458.287 665.647 457.905 665.647 457.507C665.647 457.11 665.805 456.728 666.086 456.447C666.368 456.165 666.749 456.007 667.147 456.007C667.545 456.007 667.926 456.165 668.208 456.447C668.489 456.728 668.647 457.11 668.647 457.507ZM460.001 476.731C460.001 476.929 459.962 477.124 459.887 477.306C459.811 477.488 459.701 477.653 459.561 477.792C459.422 477.932 459.256 478.042 459.074 478.117C458.892 478.193 458.697 478.232 458.5 478.231C458.303 478.231 458.108 478.193 457.926 478.117C457.744 478.042 457.578 477.931 457.439 477.792C457.3 477.652 457.189 477.487 457.114 477.305C457.039 477.123 457 476.928 457 476.73C457 476.333 457.158 475.951 457.439 475.67C457.721 475.389 458.102 475.23 458.5 475.23C458.898 475.23 459.279 475.389 459.561 475.67C459.842 475.951 460 476.333 460 476.73L460.001 476.731ZM478.968 476.731C478.968 477.129 478.81 477.511 478.528 477.792C478.247 478.073 477.865 478.231 477.467 478.231C477.07 478.231 476.688 478.073 476.407 477.791C476.126 477.51 475.968 477.128 475.968 476.73C475.968 476.333 476.126 475.951 476.407 475.67C476.689 475.389 477.07 475.23 477.468 475.23C477.866 475.23 478.247 475.389 478.529 475.67C478.81 475.951 478.968 476.334 478.968 476.731ZM497.936 476.731C497.936 476.929 497.897 477.124 497.822 477.306C497.746 477.488 497.636 477.653 497.496 477.792C497.357 477.932 497.191 478.042 497.009 478.117C496.827 478.193 496.632 478.232 496.435 478.231C496.238 478.231 496.043 478.193 495.861 478.117C495.679 478.042 495.513 477.931 495.374 477.792C495.235 477.652 495.124 477.487 495.049 477.305C494.974 477.123 494.935 476.928 494.935 476.73C494.935 476.333 495.093 475.951 495.374 475.669C495.656 475.388 496.038 475.23 496.435 475.23C496.833 475.23 497.215 475.388 497.497 475.669C497.778 475.951 497.936 476.334 497.936 476.731ZM516.904 476.731C516.904 476.929 516.865 477.124 516.79 477.306C516.714 477.488 516.604 477.653 516.464 477.792C516.325 477.932 516.159 478.042 515.977 478.117C515.795 478.193 515.6 478.232 515.403 478.231C515.206 478.231 515.011 478.193 514.829 478.117C514.647 478.042 514.481 477.931 514.342 477.792C514.203 477.652 514.092 477.487 514.017 477.305C513.942 477.123 513.903 476.928 513.903 476.73C513.903 476.333 514.061 475.951 514.342 475.67C514.624 475.389 515.005 475.23 515.403 475.23C515.801 475.23 516.182 475.389 516.464 475.67C516.745 475.951 516.903 476.333 516.903 476.73L516.904 476.731ZM535.872 476.731C535.872 476.929 535.833 477.124 535.758 477.306C535.682 477.488 535.572 477.653 535.432 477.792C535.293 477.932 535.127 478.042 534.945 478.117C534.763 478.193 534.568 478.232 534.371 478.231C534.174 478.231 533.979 478.193 533.797 478.117C533.615 478.042 533.449 477.931 533.31 477.792C533.171 477.652 533.06 477.487 532.985 477.305C532.91 477.123 532.871 476.928 532.871 476.73C532.871 476.333 533.029 475.951 533.31 475.67C533.592 475.389 533.973 475.23 534.371 475.23C534.769 475.23 535.15 475.389 535.432 475.67C535.713 475.951 535.871 476.333 535.871 476.73L535.872 476.731ZM554.839 476.731C554.839 477.129 554.681 477.511 554.4 477.792C554.118 478.073 553.737 478.231 553.339 478.231C552.941 478.231 552.56 478.073 552.278 477.792C551.997 477.511 551.839 477.129 551.839 476.731C551.839 476.334 551.997 475.952 552.278 475.671C552.56 475.389 552.941 475.231 553.339 475.231C553.737 475.231 554.118 475.389 554.4 475.671C554.681 475.952 554.839 476.334 554.839 476.731ZM573.807 476.731C573.807 477.129 573.649 477.511 573.368 477.792C573.086 478.073 572.705 478.231 572.307 478.231C571.909 478.231 571.528 478.073 571.246 477.792C570.965 477.511 570.807 477.129 570.807 476.731C570.807 476.334 570.965 475.952 571.246 475.671C571.528 475.389 571.909 475.231 572.307 475.231C572.705 475.231 573.086 475.389 573.368 475.671C573.649 475.952 573.807 476.334 573.807 476.731ZM592.776 476.731C592.776 477.129 592.618 477.511 592.336 477.792C592.055 478.074 591.673 478.232 591.275 478.231C590.877 478.231 590.495 478.073 590.214 477.792C589.933 477.51 589.775 477.128 589.775 476.73C589.775 476.333 589.933 475.951 590.214 475.669C590.496 475.388 590.878 475.23 591.276 475.23C591.673 475.23 592.055 475.388 592.336 475.669C592.618 475.951 592.776 476.334 592.776 476.731ZM611.744 476.731C611.744 477.129 611.586 477.511 611.304 477.792C611.023 478.074 610.641 478.232 610.243 478.231C609.845 478.231 609.463 478.073 609.182 477.792C608.901 477.51 608.743 477.128 608.743 476.73C608.743 476.333 608.901 475.951 609.182 475.67C609.464 475.389 609.845 475.23 610.243 475.23C610.641 475.23 611.022 475.389 611.304 475.67C611.585 475.951 611.743 476.333 611.743 476.73L611.744 476.731ZM630.712 476.731C630.712 477.13 630.554 477.511 630.272 477.793C629.99 478.074 629.609 478.232 629.211 478.232C628.812 478.232 628.431 478.074 628.149 477.792C627.868 477.51 627.71 477.129 627.71 476.73C627.71 476.333 627.868 475.951 628.149 475.669C628.431 475.388 628.813 475.23 629.211 475.23C629.608 475.23 629.99 475.388 630.271 475.669C630.553 475.951 630.711 476.333 630.711 476.73L630.712 476.731ZM649.679 476.731C649.679 476.928 649.64 477.123 649.565 477.305C649.489 477.487 649.379 477.653 649.239 477.792C649.1 477.931 648.935 478.042 648.753 478.117C648.571 478.192 648.375 478.231 648.178 478.231C647.981 478.231 647.786 478.192 647.604 478.117C647.423 478.041 647.257 477.931 647.118 477.791C646.979 477.652 646.868 477.487 646.793 477.305C646.718 477.123 646.679 476.927 646.679 476.73C646.679 476.333 646.837 475.951 647.118 475.67C647.4 475.389 647.781 475.23 648.179 475.23C648.577 475.23 648.958 475.389 649.24 475.67C649.521 475.951 649.679 476.334 649.679 476.731ZM668.647 476.731C668.647 477.129 668.489 477.511 668.207 477.792C667.926 478.074 667.544 478.232 667.146 478.231C666.748 478.231 666.366 478.073 666.085 477.792C665.804 477.51 665.646 477.128 665.646 476.73C665.646 476.333 665.804 475.951 666.085 475.669C666.367 475.388 666.749 475.23 667.146 475.23C667.544 475.23 667.926 475.388 668.208 475.669C668.489 475.951 668.647 476.334 668.647 476.731Z"
        fill="#CCF381" />
    <rect y="48" width="561" height="364" fill="#F9F9F9" />
    <path
        d="M219 462L234.343 478.136L249.686 462L265.027 478.136L280.37 462L295.713 478.136L311.056 462L326.4 478.136L341.745 462"
        stroke="#CCF381" stroke-width="2" stroke-miterlimit="50" />
    <rect x="110" width="341" height="348" fill="white" />
</svg>