<svg width="180" height="74" viewBox="0 0 180 74" fill="none" xmlns="http://www.w3.org/2000/svg">
    <path
        d="M85.4885 0.32C91.0352 0.32 95.9845 1.472 100.337 3.77599C104.774 6.07999 108.23 9.49333 110.705 14.016C113.265 18.5387 114.545 24 114.545 30.4V72H100.081V32.576C100.081 26.2613 98.5018 21.44 95.3445 18.112C92.1872 14.6987 87.8778 12.992 82.4165 12.992C76.9552 12.992 72.6032 14.6987 69.3605 18.112C66.2032 21.44 64.6245 26.2613 64.6245 32.576V72H50.1605V32.576C50.1605 26.2613 48.5818 21.44 45.4245 18.112C42.2672 14.6987 37.9578 12.992 32.4965 12.992C27.0352 12.992 22.6832 14.6987 19.4405 18.112C16.2832 21.44 14.7045 26.2613 14.7045 32.576V72H0.112497V1.472H14.7045V9.536C17.0938 6.63466 20.1232 4.37333 23.7925 2.752C27.4618 1.13067 31.3872 0.32 35.5685 0.32C41.2005 0.32 46.2352 1.51467 50.6725 3.904C55.1098 6.29333 58.5232 9.74933 60.9125 14.272C63.0458 10.0053 66.3738 6.63466 70.8965 4.16C75.4192 1.6 80.2832 0.32 85.4885 0.32ZM152.312 73.152C146.766 73.152 141.774 72.1707 137.336 70.208C132.984 68.16 129.528 65.4293 126.968 62.016C124.408 58.5173 123.043 54.6347 122.872 50.368H137.976C138.232 53.3547 139.64 55.872 142.2 57.92C144.846 59.8827 148.131 60.864 152.056 60.864C156.152 60.864 159.31 60.096 161.528 58.56C163.832 56.9387 164.984 54.8907 164.984 52.416C164.984 49.7707 163.704 47.808 161.144 46.528C158.67 45.248 154.702 43.84 149.24 42.304C143.95 40.8533 139.64 39.4453 136.312 38.08C132.984 36.7147 130.083 34.624 127.608 31.808C125.219 28.992 124.024 25.28 124.024 20.672C124.024 16.9173 125.134 13.504 127.352 10.432C129.571 7.27466 132.728 4.8 136.824 3.008C141.006 1.216 145.784 0.32 151.16 0.32C159.182 0.32 165.624 2.368 170.488 6.464C175.438 10.4747 178.083 15.9787 178.424 22.976H163.832C163.576 19.8187 162.296 17.3013 159.992 15.424C157.688 13.5467 154.574 12.608 150.648 12.608C146.808 12.608 143.864 13.3333 141.816 14.784C139.768 16.2347 138.744 18.1547 138.744 20.544C138.744 22.4213 139.427 24 140.792 25.28C142.158 26.56 143.822 27.584 145.784 28.352C147.747 29.0347 150.648 29.9307 154.488 31.04C159.608 32.4053 163.79 33.8133 167.032 35.264C170.36 36.6293 173.219 38.6773 175.608 41.408C177.998 44.1387 179.235 47.7653 179.32 52.288C179.32 56.2987 178.211 59.8827 175.992 63.04C173.774 66.1973 170.616 68.672 166.52 70.464C162.51 72.256 157.774 73.152 152.312 73.152Z"
        fill="#22D3EE" />
</svg>